<?xml version="1.0" encoding="UTF-8" standalone="no"?>
<svg
   xmlns:dc="http://purl.org/dc/elements/1.1/"
   xmlns:cc="http://creativecommons.org/ns#"
   xmlns:rdf="http://www.w3.org/1999/02/22-rdf-syntax-ns#"
   xmlns:svg="http://www.w3.org/2000/svg"
   xmlns="http://www.w3.org/2000/svg"
   xmlns:sodipodi="http://sodipodi.sourceforge.net/DTD/sodipodi-0.dtd"
   xmlns:inkscape="http://www.inkscape.org/namespaces/inkscape"
   viewBox="11505.356 755 28.429 28.429"
   id="svg3410"
   version="1.1"
   inkscape:version="0.91 r13725"
   sodipodi:docname="happy_face.svg">
  <metadata
     id="metadata3428">
    <rdf:RDF>
      <cc:Work
         rdf:about="">
        <dc:format>image/svg+xml</dc:format>
        <dc:type
           rdf:resource="http://purl.org/dc/dcmitype/StillImage" />
        <dc:title></dc:title>
      </cc:Work>
    </rdf:RDF>
  </metadata>
  <sodipodi:namedview
     pagecolor="#ffffff"
     bordercolor="#666666"
     borderopacity="1"
     objecttolerance="10"
     gridtolerance="10"
     guidetolerance="10"
     inkscape:pageopacity="0"
     inkscape:pageshadow="2"
     inkscape:window-width="1382"
     inkscape:window-height="986"
     id="namedview3426"
     showgrid="false"
     inkscape:zoom="28.28098"
     inkscape:cx="12.800122"
     inkscape:cy="12.800122"
     inkscape:window-x="0"
     inkscape:window-y="0"
     inkscape:window-maximized="0"
     inkscape:current-layer="svg3410" />
  <defs
     id="defs3412">
    <style
       id="style3414">.a{fill:#00a1e1;}</style>
  </defs>
  <g
     transform="translate(11505.356 755)"
     id="g3416"
     style="fill:#00ff00">
    <path
       class="a"
       d="M616.914,0a14.214,14.214,0,1,0,14.214,14.214A14.228,14.228,0,0,0,616.914,0Zm0,26.892a12.679,12.679,0,1,1,12.678-12.678,12.635,12.635,0,0,1-12.678,12.678Zm0,0"
       transform="translate(-602.7)"
       id="path3418"
       style="fill:#00ff00" />
    <path
       class="a"
       d="M672.673,80.737a1.537,1.537,0,1,1-1.537-1.537,1.532,1.532,0,0,1,1.537,1.537Zm0,0"
       transform="translate(-661.568 -69.692)"
       id="path3420"
       style="fill:#00ff00" />
    <path
       class="a"
       d="M751.873,80.737a1.537,1.537,0,1,1-1.537-1.537,1.532,1.532,0,0,1,1.537,1.537Zm0,0"
       transform="translate(-731.26 -69.692)"
       id="path3422"
       style="fill:#00ff00" />
    <path
       class="a"
       d="M666.519,148.274a8.929,8.929,0,0,0,7.455-4.046l-1.3-.828a7.317,7.317,0,0,1-12.281,0l-1.3.828a8.929,8.929,0,0,0,6.4,3.986,10.087,10.087,0,0,0,1.02.06Zm0,0"
       transform="translate(-652.329 -126.184)"
       id="path3424"
       style="fill:#00ff00" />
  </g>
</svg>
