<?xml version="1.0" encoding="UTF-8" standalone="no"?>
<svg
   xmlns:dc="http://purl.org/dc/elements/1.1/"
   xmlns:cc="http://creativecommons.org/ns#"
   xmlns:rdf="http://www.w3.org/1999/02/22-rdf-syntax-ns#"
   xmlns:svg="http://www.w3.org/2000/svg"
   xmlns="http://www.w3.org/2000/svg"
   xmlns:sodipodi="http://sodipodi.sourceforge.net/DTD/sodipodi-0.dtd"
   xmlns:inkscape="http://www.inkscape.org/namespaces/inkscape"
   viewBox="11433 755 28.429 28.429"
   id="svg22"
   version="1.1"
   inkscape:version="0.91 r13725"
   sodipodi:docname="sad_face_selected.svg">
  <metadata
     id="metadata40">
    <rdf:RDF>
      <cc:Work
         rdf:about="">
        <dc:format>image/svg+xml</dc:format>
        <dc:type
           rdf:resource="http://purl.org/dc/dcmitype/StillImage" />
        <dc:title></dc:title>
      </cc:Work>
    </rdf:RDF>
  </metadata>
  <sodipodi:namedview
     pagecolor="#ffffff"
     bordercolor="#666666"
     borderopacity="1"
     objecttolerance="10"
     gridtolerance="10"
     guidetolerance="10"
     inkscape:pageopacity="0"
     inkscape:pageshadow="2"
     inkscape:window-width="640"
     inkscape:window-height="480"
     id="namedview38"
     showgrid="false"
     inkscape:zoom="8.3013821"
     inkscape:cx="14.2145"
     inkscape:cy="14.2145"
     inkscape:window-x="0"
     inkscape:window-y="0"
     inkscape:window-maximized="0"
     inkscape:current-layer="svg22" />
  <defs
     id="defs24">
    <style
       id="style26">.a{fill:#00a1e1;}</style>
  </defs>
  <g
     transform="translate(11433 755)"
     id="g28"
     style="fill:#00ff00">
    <path
       class="a"
       d="M14.214,0A14.214,14.214,0,1,0,28.429,14.214,14.228,14.228,0,0,0,14.214,0Zm0,26.892A12.679,12.679,0,1,1,26.892,14.214,12.635,12.635,0,0,1,14.214,26.892Zm0,0"
       id="path30"
       style="fill:#00ff00" />
    <path
       class="a"
       d="M69.973,80.737A1.537,1.537,0,1,1,68.437,79.2a1.532,1.532,0,0,1,1.537,1.537Zm0,0"
       transform="translate(-58.868 -69.692)"
       id="path32"
       style="fill:#00ff00" />
    <path
       class="a"
       d="M149.173,80.737a1.537,1.537,0,1,1-1.537-1.537,1.532,1.532,0,0,1,1.537,1.537Zm0,0"
       transform="translate(-128.56 -69.692)"
       id="path34"
       style="fill:#00ff00" />
    <path
       class="a"
       d="M63.955,143.4a8.93,8.93,0,0,0-7.455,4.046l1.3.828a7.317,7.317,0,0,1,12.281,0l1.3-.828a8.929,8.929,0,0,0-6.4-3.986,7.492,7.492,0,0,0-1.02-.06Zm0,0"
       transform="translate(-49.717 -126.184)"
       id="path36"
       style="fill:#00ff00" />
  </g>
</svg>
