<?xml version="1.0" encoding="UTF-8" standalone="no"?>
<svg
   xmlns:dc="http://purl.org/dc/elements/1.1/"
   xmlns:cc="http://creativecommons.org/ns#"
   xmlns:rdf="http://www.w3.org/1999/02/22-rdf-syntax-ns#"
   xmlns:svg="http://www.w3.org/2000/svg"
   xmlns="http://www.w3.org/2000/svg"
   xmlns:sodipodi="http://sodipodi.sourceforge.net/DTD/sodipodi-0.dtd"
   xmlns:inkscape="http://www.inkscape.org/namespaces/inkscape"
   viewBox="11469.184 755 28.428 28.429"
   id="svg2"
   version="1.1"
   inkscape:version="0.91 r13725"
   sodipodi:docname="neutral_face_selected.svg">
  <metadata
     id="metadata20">
    <rdf:RDF>
      <cc:Work
         rdf:about="">
        <dc:format>image/svg+xml</dc:format>
        <dc:type
           rdf:resource="http://purl.org/dc/dcmitype/StillImage" />
        <dc:title></dc:title>
      </cc:Work>
    </rdf:RDF>
  </metadata>
  <sodipodi:namedview
     pagecolor="#ffffff"
     bordercolor="#666666"
     borderopacity="1"
     objecttolerance="10"
     gridtolerance="10"
     guidetolerance="10"
     inkscape:pageopacity="0"
     inkscape:pageshadow="2"
     inkscape:window-width="640"
     inkscape:window-height="480"
     id="namedview18"
     showgrid="false"
     inkscape:zoom="8.3013821"
     inkscape:cx="14.214"
     inkscape:cy="14.2145"
     inkscape:window-x="0"
     inkscape:window-y="0"
     inkscape:window-maximized="0"
     inkscape:current-layer="svg2" />
  <defs
     id="defs4">
    <style
       id="style6">.a{fill:#00a1e1;}</style>
  </defs>
  <g
     transform="translate(11469.184 755)"
     id="g8"
     style="fill:#00ff00">
    <path
       class="a"
       d="M315.614,0a14.214,14.214,0,1,0,14.214,14.214A14.228,14.228,0,0,0,315.614,0Zm0,26.892a12.679,12.679,0,1,1,12.678-12.678,12.635,12.635,0,0,1-12.678,12.678Zm0,0"
       transform="translate(-301.4)"
       id="path10"
       style="fill:#00ff00" />
    <path
       class="a"
       d="M371.373,80.737a1.537,1.537,0,1,1-1.537-1.537,1.532,1.532,0,0,1,1.537,1.537Zm0,0"
       transform="translate(-360.268 -69.692)"
       id="path12"
       style="fill:#00ff00" />
    <path
       class="a"
       d="M450.573,80.737a1.537,1.537,0,1,1-1.537-1.537,1.532,1.532,0,0,1,1.537,1.537Zm0,0"
       transform="translate(-429.96 -69.692)"
       id="path14"
       style="fill:#00ff00" />
    <path
       class="a"
       d="M384.858,143.4m4.85,3.554H380.2v-1.537h9.508Z"
       transform="translate(-370.74 -126.184)"
       id="path16"
       style="fill:#00ff00" />
  </g>
</svg>
